<svg xmlns="http://www.w3.org/2000/svg" viewBox="0 0 205.57 187.31"><defs><style>.cls-1{fill:#d6d3d1;}</style></defs><g id="Capa_2" data-name="Capa 2"><g id="Layer_1" data-name="Layer 1"><path class="cls-1" d="M162.22,3.62c-19.71-7.5-42.55-3.12-59.9,11C90.66,5.27,76.55.7,61,.79A63.09,63.09,0,0,0,15.41,21.86C-6.81,46.55-4.75,86.77,20,111.52l71.16,71.17a15.85,15.85,0,0,0,22.37,0l73.41-73.41A63.4,63.4,0,0,0,204.14,51C199.48,29.25,184.21,12,162.22,3.62Zm14.11,95.05-74.56,73.41L30.61,100.92c-19.2-19.21-21-50.17-4.05-69A48.19,48.19,0,0,1,61.43,15.79l1.32,0A48.07,48.07,0,0,1,97,30a7.5,7.5,0,0,0,10.61,0l.08-.08c13.62-13.62,32.88-18.46,49.16-12.27,17.13,6.52,29,19.81,32.58,36.46A48.43,48.43,0,0,1,176.33,98.67Z"/></g></g></svg>